<svg width="16" height="16" viewBox="0 0 16 16" fill="none" xmlns="http://www.w3.org/2000/svg">
<path d="M5.00098 1.99976H9.73431C11.2278 1.99976 11.9745 1.99976 12.545 2.29041C13.0467 2.54607 13.4547 2.95402 13.7103 3.45578C14.001 4.02621 14.001 4.77295 14.001 6.26642V10.9998M4.13431 13.9998H9.53431C10.281 13.9998 10.6544 13.9998 10.9396 13.8544C11.1905 13.7266 11.3945 13.5226 11.5223 13.2717C11.6676 12.9865 11.6676 12.6132 11.6676 11.8664V6.46642C11.6676 5.71969 11.6676 5.34632 11.5223 5.0611C11.3945 4.81022 11.1905 4.60625 10.9396 4.47841C10.6544 4.33309 10.281 4.33309 9.53431 4.33309H4.13431C3.38757 4.33309 3.0142 4.33309 2.72899 4.47841C2.47811 4.60625 2.27413 4.81022 2.1463 5.0611C2.00098 5.34632 2.00098 5.71969 2.00098 6.46642V11.8664C2.00098 12.6132 2.00098 12.9865 2.1463 13.2717C2.27413 13.5226 2.47811 13.7266 2.72899 13.8544C3.0142 13.9998 3.38757 13.9998 4.13431 13.9998Z" stroke="#9CA3AF" stroke-width="1.5" stroke-linecap="round" stroke-linejoin="round"/>
</svg>
