<svg width="28" height="28" viewBox="0 0 28 28" fill="none" xmlns="http://www.w3.org/2000/svg">
<path d="M10.6667 18.1668H17.3333M13.1814 6.30345L7.52949 10.6994C7.15168 10.9932 6.96278 11.1402 6.82669 11.3242C6.70614 11.4872 6.61633 11.6708 6.56169 11.866C6.5 12.0864 6.5 12.3257 6.5 12.8043V18.8334C6.5 19.7669 6.5 20.2336 6.68166 20.5901C6.84144 20.9037 7.09641 21.1587 7.41002 21.3185C7.76654 21.5001 8.23325 21.5001 9.16667 21.5001H18.8333C19.7668 21.5001 20.2335 21.5001 20.59 21.3185C20.9036 21.1587 21.1586 20.9037 21.3183 20.5901C21.5 20.2336 21.5 19.7669 21.5 18.8334V12.8043C21.5 12.3257 21.5 12.0864 21.4383 11.866C21.3837 11.6708 21.2939 11.4872 21.1733 11.3242C21.0372 11.1402 20.8483 10.9932 20.4705 10.6994L14.8186 6.30345C14.5258 6.07574 14.3794 5.96189 14.2178 5.91812C14.0752 5.87951 13.9248 5.87951 13.7822 5.91812C13.6206 5.96189 13.4742 6.07574 13.1814 6.30345Z" stroke="currentColor" stroke-width="2" stroke-linecap="round" stroke-linejoin="round"/>
</svg>
