<svg width="28" height="28" viewBox="0 0 28 28" fill="none" xmlns="http://www.w3.org/2000/svg">
<path d="M14.8337 9.83333L13.904 7.9741C13.6365 7.439 13.5027 7.17144 13.3031 6.97597C13.1266 6.80311 12.9139 6.67164 12.6804 6.59109C12.4163 6.5 12.1172 6.5 11.5189 6.5H8.33366C7.40024 6.5 6.93353 6.5 6.57701 6.68166C6.2634 6.84144 6.00844 7.09641 5.84865 7.41002C5.66699 7.76654 5.66699 8.23325 5.66699 9.16667V9.83333M5.66699 9.83333H18.3337C19.7338 9.83333 20.4339 9.83333 20.9686 10.1058C21.439 10.3455 21.8215 10.728 22.0612 11.1984C22.3337 11.7331 22.3337 12.4332 22.3337 13.8333V17.5C22.3337 18.9001 22.3337 19.6002 22.0612 20.135C21.8215 20.6054 21.439 20.9878 20.9686 21.2275C20.4339 21.5 19.7338 21.5 18.3337 21.5H9.66699C8.26686 21.5 7.5668 21.5 7.03202 21.2275C6.56161 20.9878 6.17916 20.6054 5.93948 20.135C5.66699 19.6002 5.66699 18.9001 5.66699 17.5V9.83333Z" stroke="currentColor" stroke-width="2" stroke-linecap="round" stroke-linejoin="round"/>
</svg>
