<svg width="28" height="28" viewBox="0 0 28 28" fill="none" xmlns="http://www.w3.org/2000/svg">
<g clip-path="url(#clip0_84_3091)">
<path d="M14.0003 16.5001C15.381 16.5001 16.5003 15.3808 16.5003 14.0001C16.5003 12.6194 15.381 11.5001 14.0003 11.5001C12.6196 11.5001 11.5003 12.6194 11.5003 14.0001C11.5003 15.3808 12.6196 16.5001 14.0003 16.5001Z" stroke="currentColor" stroke-width="2" stroke-linecap="round" stroke-linejoin="round"/>
<path d="M19.6064 16.2728C19.5055 16.5013 19.4755 16.7548 19.52 17.0005C19.5646 17.2463 19.6817 17.4731 19.8564 17.6516L19.9018 17.6971C20.0427 17.8378 20.1545 18.0049 20.2307 18.1888C20.307 18.3727 20.3462 18.5699 20.3462 18.769C20.3462 18.9681 20.307 19.1653 20.2307 19.3492C20.1545 19.5332 20.0427 19.7003 19.9018 19.841C19.7611 19.9819 19.594 20.0936 19.4101 20.1699C19.2261 20.2461 19.029 20.2854 18.8299 20.2854C18.6308 20.2854 18.4336 20.2461 18.2497 20.1699C18.0657 20.0936 17.8986 19.9819 17.7579 19.841L17.7124 19.7955C17.5339 19.6209 17.3071 19.5037 17.0614 19.4592C16.8156 19.4146 16.5622 19.4447 16.3337 19.5455C16.1096 19.6416 15.9185 19.801 15.7839 20.0043C15.6493 20.2075 15.5771 20.4457 15.5761 20.6895V20.8183C15.5761 21.2201 15.4165 21.6055 15.1323 21.8896C14.8482 22.1738 14.4628 22.3334 14.0609 22.3334C13.6591 22.3334 13.2737 22.1738 12.9896 21.8896C12.7054 21.6055 12.5458 21.2201 12.5458 20.8183V20.7501C12.5399 20.4993 12.4587 20.2561 12.3128 20.0521C12.1669 19.8481 11.963 19.6927 11.7276 19.6061C11.4991 19.5053 11.2456 19.4752 10.9999 19.5198C10.7541 19.5643 10.5274 19.6815 10.3488 19.8561L10.3034 19.9016C10.1626 20.0425 9.99554 20.1542 9.8116 20.2305C9.62766 20.3067 9.4305 20.346 9.23139 20.346C9.03227 20.346 8.83511 20.3067 8.65117 20.2305C8.46724 20.1542 8.30013 20.0425 8.15942 19.9016C8.01854 19.7609 7.90679 19.5938 7.83054 19.4098C7.75429 19.2259 7.71504 19.0287 7.71504 18.8296C7.71504 18.6305 7.75429 18.4334 7.83054 18.2494C7.90679 18.0655 8.01854 17.8984 8.15942 17.7577L8.20487 17.7122C8.37952 17.5337 8.49668 17.3069 8.54124 17.0611C8.5858 16.8154 8.55572 16.5619 8.45487 16.3334C8.35884 16.1093 8.19938 15.9183 7.99613 15.7836C7.79288 15.649 7.55471 15.5768 7.31093 15.5758H7.18214C6.7803 15.5758 6.39492 15.4162 6.11077 15.1321C5.82662 14.8479 5.66699 14.4625 5.66699 14.0607C5.66699 13.6588 5.82662 13.2735 6.11077 12.9893C6.39492 12.7052 6.7803 12.5455 7.18214 12.5455H7.25033C7.50108 12.5397 7.74427 12.4585 7.94828 12.3126C8.15229 12.1667 8.30769 11.9628 8.39427 11.7274C8.49511 11.4989 8.52519 11.2454 8.48063 10.9996C8.43607 10.7539 8.31891 10.5271 8.14427 10.3486L8.09881 10.3031C7.95794 10.1624 7.84618 9.99529 7.76993 9.81135C7.69368 9.62742 7.65444 9.43026 7.65444 9.23114C7.65444 9.03203 7.69368 8.83487 7.76993 8.65093C7.84618 8.46699 7.95794 8.29989 8.09881 8.15917C8.23953 8.0183 8.40663 7.90654 8.59057 7.83029C8.7745 7.75405 8.97167 7.7148 9.17078 7.7148C9.36989 7.7148 9.56706 7.75405 9.75099 7.83029C9.93493 7.90654 10.102 8.0183 10.2427 8.15917L10.2882 8.20463C10.4667 8.37928 10.6935 8.49643 10.9393 8.54099C11.185 8.58555 11.4385 8.55547 11.667 8.45463H11.7276C11.9517 8.35859 12.1428 8.19914 12.2774 7.99589C12.412 7.79264 12.4842 7.55447 12.4852 7.31069V7.1819C12.4852 6.78006 12.6448 6.39467 12.929 6.11053C13.2131 5.82638 13.5985 5.66675 14.0003 5.66675C14.4022 5.66675 14.7876 5.82638 15.0717 6.11053C15.3558 6.39467 15.5155 6.78006 15.5155 7.1819V7.25008C15.5164 7.49386 15.5887 7.73203 15.7233 7.93528C15.8579 8.13853 16.049 8.29799 16.2731 8.39402C16.5016 8.49487 16.755 8.52495 17.0008 8.48039C17.2465 8.43583 17.4733 8.31867 17.6518 8.14402L17.6973 8.09857C17.838 7.95769 18.0051 7.84594 18.1891 7.76969C18.373 7.69344 18.5702 7.65419 18.7693 7.65419C18.9684 7.65419 19.1655 7.69344 19.3495 7.76969C19.5334 7.84594 19.7005 7.95769 19.8412 8.09857C19.9821 8.23928 20.0939 8.40639 20.1701 8.59032C20.2464 8.77426 20.2856 8.97142 20.2856 9.17054C20.2856 9.36965 20.2464 9.56681 20.1701 9.75075C20.0939 9.93469 19.9821 10.1018 19.8412 10.2425L19.7958 10.288C19.6211 10.4665 19.504 10.6933 19.4594 10.939C19.4149 11.1848 19.4449 11.4383 19.5458 11.6667V11.7274C19.6418 11.9514 19.8013 12.1425 20.0045 12.2771C20.2078 12.4117 20.4459 12.484 20.6897 12.4849H20.8185C21.2204 12.4849 21.6057 12.6446 21.8899 12.9287C22.174 13.2129 22.3337 13.5982 22.3337 14.0001C22.3337 14.4019 22.174 14.7873 21.8899 15.0715C21.6057 15.3556 21.2204 15.5152 20.8185 15.5152H20.7503C20.5065 15.5162 20.2684 15.5884 20.0651 15.723C19.8619 15.8576 19.7024 16.0487 19.6064 16.2728Z" stroke="currentColor" stroke-width="2" stroke-linecap="round" stroke-linejoin="round"/>
</g>
<defs>
<clipPath id="clip0_84_3091">
<rect width="20" height="20" fill="white" transform="translate(4 4)"/>
</clipPath>
</defs>
</svg>
