<svg width="28" height="28" viewBox="0 0 28 28" fill="none" xmlns="http://www.w3.org/2000/svg">
<path d="M17.3333 9.00008V8.33341C17.3333 7.39999 17.3333 6.93328 17.1517 6.57676C16.9919 6.26316 16.7369 6.00819 16.4233 5.8484C16.0668 5.66675 15.6001 5.66675 14.6667 5.66675H13.3333C12.3999 5.66675 11.9332 5.66675 11.5767 5.8484C11.2631 6.00819 11.0081 6.26316 10.8483 6.57676C10.6667 6.93328 10.6667 7.39999 10.6667 8.33341V9.00008M12.3333 13.5834V17.7501M15.6667 13.5834V17.7501M6.5 9.00008H21.5M19.8333 9.00008V18.3334C19.8333 19.7335 19.8333 20.4336 19.5608 20.9684C19.3212 21.4388 18.9387 21.8212 18.4683 22.0609C17.9335 22.3334 17.2335 22.3334 15.8333 22.3334H12.1667C10.7665 22.3334 10.0665 22.3334 9.53169 22.0609C9.06129 21.8212 8.67883 21.4388 8.43915 20.9684C8.16667 20.4336 8.16667 19.7335 8.16667 18.3334V9.00008" stroke="currentColor" stroke-width="2" stroke-linecap="round" stroke-linejoin="round"/>
</svg>
