<svg width="28" height="28" viewBox="0 0 28 28" fill="none" xmlns="http://www.w3.org/2000/svg">
<path d="M13.4016 6.87775C13.5936 6.48863 13.6897 6.29408 13.82 6.23192C13.9335 6.17783 14.0653 6.17783 14.1787 6.23192C14.3091 6.29408 14.4051 6.48863 14.5972 6.87775L16.4194 10.5694C16.4761 10.6843 16.5045 10.7417 16.5459 10.7863C16.5826 10.8258 16.6266 10.8578 16.6754 10.8805C16.7306 10.9062 16.794 10.9154 16.9208 10.934L20.9968 11.5297C21.4261 11.5925 21.6407 11.6238 21.74 11.7287C21.8264 11.8199 21.8671 11.9452 21.8506 12.0698C21.8317 12.213 21.6763 12.3643 21.3656 12.667L18.4172 15.5387C18.3253 15.6282 18.2794 15.6729 18.2497 15.7262C18.2235 15.7734 18.2066 15.8252 18.2001 15.8787C18.1928 15.9393 18.2036 16.0025 18.2253 16.1289L18.921 20.1851C18.9944 20.6129 19.031 20.8268 18.9621 20.9537C18.9021 21.0642 18.7955 21.1416 18.6719 21.1645C18.5299 21.1909 18.3378 21.0899 17.9536 20.8878L14.3097 18.9715C14.1961 18.9118 14.1394 18.882 14.0796 18.8702C14.0266 18.8598 13.9721 18.8598 13.9192 18.8702C13.8594 18.882 13.8026 18.9118 13.6891 18.9715L10.0451 20.8878C9.66095 21.0899 9.46886 21.1909 9.32683 21.1645C9.20325 21.1416 9.09662 21.0642 9.03663 20.9537C8.96768 20.8268 9.00437 20.6129 9.07774 20.1851L9.77342 16.1289C9.79511 16.0025 9.80595 15.9393 9.79862 15.8787C9.79212 15.8252 9.77528 15.7734 9.74902 15.7262C9.71937 15.6729 9.67341 15.6282 9.5815 15.5387L6.63315 12.667C6.3224 12.3643 6.16703 12.213 6.14812 12.0698C6.13167 11.9452 6.17231 11.8199 6.25872 11.7287C6.35804 11.6238 6.57266 11.5925 7.00189 11.5297L11.0779 10.934C11.2047 10.9154 11.2681 10.9062 11.3233 10.8805C11.3722 10.8578 11.4162 10.8258 11.4528 10.7863C11.4943 10.7417 11.5226 10.6843 11.5793 10.5694L13.4016 6.87775Z" stroke="currentColor" stroke-width="2" stroke-linecap="round" stroke-linejoin="round"/>
</svg>
