<svg width="28" height="28" viewBox="0 0 28 28" fill="none" xmlns="http://www.w3.org/2000/svg">
<g clip-path="url(#clip0_84_2808)">
<path d="M10.667 10.6667H10.6753M5.66699 8.33341L5.66699 12.0622C5.66699 12.4698 5.66699 12.6737 5.71304 12.8655C5.75387 13.0355 5.82121 13.1981 5.91259 13.3472C6.01566 13.5154 6.15979 13.6595 6.44804 13.9478L12.8386 20.3383C13.8286 21.3284 14.3236 21.8234 14.8944 22.0089C15.3966 22.172 15.9374 22.172 16.4395 22.0089C17.0104 21.8234 17.5054 21.3284 18.4954 20.3383L20.3386 18.4952C21.3286 17.5051 21.8236 17.0101 22.0091 16.4393C22.1722 15.9372 22.1722 15.3963 22.0091 14.8942C21.8236 14.3234 21.3286 13.8284 20.3386 12.8383L13.948 6.4478C13.6598 6.15954 13.5157 6.01542 13.3475 5.91235C13.1983 5.82097 13.0358 5.75363 12.8657 5.7128C12.6739 5.66675 12.4701 5.66675 12.0624 5.66675L8.33366 5.66675C7.40024 5.66675 6.93353 5.66675 6.57701 5.8484C6.26341 6.00819 6.00844 6.26316 5.84865 6.57676C5.66699 6.93328 5.66699 7.39999 5.66699 8.33341ZM11.0837 10.6667C11.0837 10.8969 10.8971 11.0834 10.667 11.0834C10.4369 11.0834 10.2503 10.8969 10.2503 10.6667C10.2503 10.4366 10.4369 10.2501 10.667 10.2501C10.8971 10.2501 11.0837 10.4366 11.0837 10.6667Z" stroke="currentColor" stroke-width="2" stroke-linecap="round" stroke-linejoin="round"/>
</g>
<defs>
<clipPath id="clip0_84_2808">
<rect width="20" height="20" fill="white" transform="translate(4 4)"/>
</clipPath>
</defs>
</svg>
